<svg width="62" height="62" viewBox="0 0 62 62" xmlns="http://www.w3.org/2000/svg">
<path fill-rule="evenodd" clip-rule="evenodd" d="M39 0H1C0.448 0 0 0.448 0 1V61C0 61.552 0.448 62 1 62H39C39.552 62 40 61.552 40 61V1C40 0.448 39.552 0 39 0ZM38 60H2V2H38V60ZM7 18H11C11.552 18 12 17.552 12 17V13C12 12.448 11.552 12 11 12H7C6.448 12 6 12.448 6 13V17C6 17.552 6.448 18 7 18ZM8 14H10V16H8V14ZM11 26H7C6.448 26 6 25.552 6 25V21C6 20.448 6.448 20 7 20H11C11.552 20 12 20.448 12 21V25C12 25.552 11.552 26 11 26ZM10 22H8V24H10V22ZM7 34H11C11.552 34 12 33.552 12 33V29C12 28.448 11.552 28 11 28H7C6.448 28 6 28.448 6 29V33C6 33.552 6.448 34 7 34ZM8 30H10V32H8V30ZM11 42H7C6.448 42 6 41.552 6 41V37C6 36.448 6.448 36 7 36H11C11.552 36 12 36.448 12 37V41C12 41.552 11.552 42 11 42ZM10 38H8V40H10V38ZM7 50H11C11.552 50 12 49.552 12 49V45C12 44.448 11.552 44 11 44H7C6.448 44 6 44.448 6 45V49C6 49.552 6.448 50 7 50ZM8 46H10V48H8V46ZM10 4H30V6H10V4ZM25 8H14V10H25V8ZM16 14H34V16H16V14ZM34 22H16V24H34V22ZM16 30H34V32H16V30ZM34 38H16V40H34V38ZM16 46H34V48H16V46ZM48.958 6.713C48.831 6.29 48.441 6 48 6C47.559 6 47.169 6.29 47.042 6.713L44.042 16.713C44.014 16.806 44 16.903 44 17V61C44 61.552 44.448 62 45 62H51C51.552 62 52 61.552 52 61V17C52 16.903 51.986 16.806 51.958 16.713L48.958 6.713ZM48 10.48L49.656 16H46.344L48 10.48ZM46 60V56H50V60H46ZM60.929 9.628C60.976 9.747 61 9.873 61 10V42C61.552 42 62 42.448 62 43V55C62 55.552 61.552 56 61 56V61C61 61.552 60.552 62 60 62H56C55.448 62 55 61.552 55 61V56C54.448 56 54 55.552 54 55V43C54 42.448 54.448 42 55 42V10C55 9.873 55.024 9.747 55.071 9.628L57.071 4.628C57.224 4.249 57.591 4 58 4C58.409 4 58.776 4.249 58.929 4.628L60.929 9.628ZM58.923 10L58 7.692L57.077 10H58.923ZM46 18H50V54H46V18ZM59 12H57V42H59V12ZM57 56V60H59V56H57ZM56 44V54H60V44H56Z"/>
</svg>
