<svg width="222" height="74" viewBox="0 0 222 74" fill="none" xmlns="http://www.w3.org/2000/svg">
<mask id="mask0_259_376" style="mask-type:alpha" maskUnits="userSpaceOnUse" x="4" y="24" width="212" height="50">
<path d="M10.074 73V53.363H14.6C22.63 53.363 26.207 46.647 26.207 38.836C26.207 31.025 22.63 24.309 14.6 24.309H4.599V73H10.074ZM14.089 48.472H10.074V29.2H14.089C18.396 29.2 20.513 33.215 20.513 38.836C20.513 44.457 18.396 48.472 14.089 48.472ZM52.6518 73L43.0158 24.309H36.6648L27.1018 73H32.7228L34.6938 61.831H45.0598L47.0308 73H52.6518ZM44.4028 56.94H35.3508L39.8768 30.879L44.4028 56.94ZM79.8266 73L72.6726 52.122C75.6656 51.027 79.3886 47.304 79.3886 38.69C79.3886 29.784 74.6436 24.309 68.0006 24.309H57.7806V73H63.2556V53.363H67.5626L73.9136 73H79.8266ZM67.2706 48.472H63.2556V29.2H67.2706C71.5776 29.2 73.6946 33.215 73.6946 38.836C73.6946 44.457 71.5776 48.472 67.2706 48.472ZM93.1258 73V24.309H87.6508V73H93.1258ZM112.264 73V29.2H119.929V24.309H99.0513V29.2H106.716V73H112.264ZM137.615 73V52.341L148.492 24.309H142.652L134.841 46.72L127.176 24.309H121.19L132.14 52.341V73H137.615ZM152.112 73.73C154.156 73.73 155.835 71.978 155.835 69.934C155.835 67.89 154.156 66.211 152.112 66.211C149.995 66.211 148.243 67.89 148.243 69.934C148.243 71.978 149.995 73.73 152.112 73.73ZM175.878 73C183.324 73 186.609 67.817 186.609 59.86C186.609 54.093 183.835 48.618 179.601 47.888C183.47 46.501 185.952 42.851 185.952 36.719C185.952 29.273 182.302 24.309 175.44 24.309H164.928V73H175.878ZM174.345 45.625H170.403V29.2H174.345C178.798 29.2 180.258 32.85 180.258 37.449C180.258 42.121 178.798 45.625 174.345 45.625ZM174.637 68.109H170.403V50.516H174.637C179.09 50.516 180.915 54.677 180.915 59.349C180.915 64.751 179.09 68.109 174.637 68.109ZM204.698 73V52.341L215.575 24.309H209.735L201.924 46.72L194.259 24.309H188.273L199.223 52.341V73H204.698Z" fill="#303544"/>
</mask>
<g mask="url(#mask0_259_376)">
<rect x="-7" y="10" width="235" height="52" fill="white"/>
<path d="M-6.99958 44C132 14.5 80 63 228 44C230.752 59.7733 228 85 228 85H-6.99958C-6.99958 85 -9.7515 59.7733 -6.99958 44Z" fill="white"/>
</g>
<path d="M5.61035 14.1758C4.12109 14.1758 2.92725 13.6851 2.02881 12.7036C1.13525 11.7222 0.688477 10.4453 0.688477 8.87305C0.688477 7.18359 1.14502 5.83594 2.05811 4.83008C2.97119 3.82422 4.21387 3.32129 5.78613 3.32129C7.23633 3.32129 8.40332 3.80957 9.28711 4.78613C10.1758 5.7627 10.6201 7.03955 10.6201 8.6167C10.6201 10.3306 10.166 11.6855 9.25781 12.6816C8.34961 13.6777 7.13379 14.1758 5.61035 14.1758ZM5.69824 4.43457C4.59473 4.43457 3.69873 4.83252 3.01025 5.62842C2.32178 6.42432 1.97754 7.46924 1.97754 8.76318C1.97754 10.0571 2.31201 11.0996 2.98096 11.8906C3.65479 12.6768 4.53125 13.0698 5.61035 13.0698C6.7627 13.0698 7.6709 12.6938 8.33496 11.9419C8.99902 11.1899 9.33105 10.1377 9.33105 8.78516C9.33105 7.39844 9.00879 6.32666 8.36426 5.56982C7.71973 4.81299 6.83105 4.43457 5.69824 4.43457ZM18.3439 14.1758C16.8547 14.1758 15.6608 13.6851 14.7624 12.7036C13.8688 11.7222 13.4221 10.4453 13.4221 8.87305C13.4221 7.18359 13.8786 5.83594 14.7917 4.83008C15.7048 3.82422 16.9475 3.32129 18.5197 3.32129C19.9699 3.32129 21.1369 3.80957 22.0207 4.78613C22.9094 5.7627 23.3537 7.03955 23.3537 8.6167C23.3537 10.3306 22.8996 11.6855 21.9914 12.6816C21.0832 13.6777 19.8674 14.1758 18.3439 14.1758ZM18.4318 4.43457C17.3283 4.43457 16.4323 4.83252 15.7438 5.62842C15.0554 6.42432 14.7111 7.46924 14.7111 8.76318C14.7111 10.0571 15.0456 11.0996 15.7146 11.8906C16.3884 12.6768 17.2648 13.0698 18.3439 13.0698C19.4963 13.0698 20.4045 12.6938 21.0686 11.9419C21.7326 11.1899 22.0646 10.1377 22.0646 8.78516C22.0646 7.39844 21.7424 6.32666 21.0979 5.56982C20.4533 4.81299 19.5646 4.43457 18.4318 4.43457ZM31.0775 14.1758C29.5883 14.1758 28.3944 13.6851 27.496 12.7036C26.6024 11.7222 26.1557 10.4453 26.1557 8.87305C26.1557 7.18359 26.6122 5.83594 27.5253 4.83008C28.4384 3.82422 29.6811 3.32129 31.2533 3.32129C32.7035 3.32129 33.8705 3.80957 34.7543 4.78613C35.643 5.7627 36.0873 7.03955 36.0873 8.6167C36.0873 10.3306 35.6332 11.6855 34.725 12.6816C33.8168 13.6777 32.601 14.1758 31.0775 14.1758ZM31.1654 4.43457C30.0619 4.43457 29.1659 4.83252 28.4774 5.62842C27.789 6.42432 27.4447 7.46924 27.4447 8.76318C27.4447 10.0571 27.7792 11.0996 28.4481 11.8906C29.122 12.6768 29.9984 13.0698 31.0775 13.0698C32.2299 13.0698 33.1381 12.6938 33.8021 11.9419C34.4662 11.1899 34.7982 10.1377 34.7982 8.78516C34.7982 7.39844 34.476 6.32666 33.8314 5.56982C33.1869 4.81299 32.2982 4.43457 31.1654 4.43457ZM50.6707 12.5352H49.4402L47.2503 10.0742L49.4402 7.55469H50.6854L48.4368 10.0742L50.6707 12.5352ZM47.8216 12.5352H46.6058L44.4158 10.0742L46.6058 7.55469H47.8216L45.6023 10.0742L47.8216 12.5352ZM63.4336 16.8198H62.2983V14H54.1318V3.49707H55.3623V12.8867H60.7969V3.49707H62.0273V12.8867H63.4336V16.8198ZM72.2561 14H66.6897V3.49707H72.0217V4.61035H67.9201V8.104H71.7141V9.20996H67.9201V12.8867H72.2561V14ZM83.598 14H82.3676V9.20996H76.933V14H75.7025V3.49707H76.933V8.104H82.3676V3.49707H83.598V14ZM93.9879 4.61035H90.9557V14H89.7252V4.61035H86.7003V3.49707H93.9879V4.61035ZM98.2986 10.0303V14H97.0682V3.49707H99.9539C101.077 3.49707 101.946 3.77051 102.561 4.31738C103.181 4.86426 103.492 5.63574 103.492 6.63184C103.492 7.62793 103.147 8.44336 102.459 9.07812C101.775 9.71289 100.85 10.0303 99.6829 10.0303H98.2986ZM98.2986 4.61035V8.91699H99.5877C100.437 8.91699 101.084 8.72412 101.529 8.33838C101.978 7.94775 102.202 7.39844 102.202 6.69043C102.202 5.30371 101.382 4.61035 99.7415 4.61035H98.2986ZM120.909 14H119.679V6.41211C119.679 5.72852 119.703 5.24756 119.752 4.96924H119.708C119.615 5.2085 119.503 5.42822 119.371 5.62842L113.966 14H112.443V3.49707H113.673V10.8945C113.673 11.6855 113.654 12.2007 113.614 12.4399H113.644C113.751 12.2251 113.888 11.9907 114.054 11.7368L119.327 3.49707H120.909V14ZM132.998 14H131.768V9.20996H126.333V14H125.103V3.49707H126.333V8.104H131.768V3.49707H132.998V14ZM145.073 14H143.842V9.20996H138.408V14H137.177V3.49707H138.408V8.104H143.842V3.49707H145.073V14ZM153.485 14.1758C151.996 14.1758 150.802 13.6851 149.904 12.7036C149.01 11.7222 148.563 10.4453 148.563 8.87305C148.563 7.18359 149.02 5.83594 149.933 4.83008C150.846 3.82422 152.089 3.32129 153.661 3.32129C155.111 3.32129 156.278 3.80957 157.162 4.78613C158.051 5.7627 158.495 7.03955 158.495 8.6167C158.495 10.3306 158.041 11.6855 157.133 12.6816C156.224 13.6777 155.009 14.1758 153.485 14.1758ZM153.573 4.43457C152.47 4.43457 151.574 4.83252 150.885 5.62842C150.197 6.42432 149.852 7.46924 149.852 8.76318C149.852 10.0571 150.187 11.0996 150.856 11.8906C151.53 12.6768 152.406 13.0698 153.485 13.0698C154.637 13.0698 155.546 12.6938 156.21 11.9419C156.874 11.1899 157.206 10.1377 157.206 8.78516C157.206 7.39844 156.884 6.32666 156.239 5.56982C155.595 4.81299 154.706 4.43457 153.573 4.43457ZM161.985 14V3.49707H164.974C165.882 3.49707 166.602 3.71924 167.134 4.16357C167.667 4.60791 167.933 5.18652 167.933 5.89941C167.933 6.49512 167.771 7.0127 167.449 7.45215C167.127 7.8916 166.683 8.2041 166.116 8.38965V8.41895C166.824 8.50195 167.391 8.77051 167.815 9.22461C168.24 9.67383 168.453 10.2598 168.453 10.9824C168.453 11.8809 168.13 12.6084 167.486 13.165C166.841 13.7217 166.028 14 165.047 14H161.985ZM163.216 4.61035V8.00146H164.476C165.149 8.00146 165.679 7.84033 166.065 7.51807C166.451 7.19092 166.644 6.73193 166.644 6.14111C166.644 5.12061 165.972 4.61035 164.629 4.61035H163.216ZM163.216 9.10742V12.8867H164.886C165.608 12.8867 166.167 12.7158 166.563 12.374C166.963 12.0322 167.164 11.5635 167.164 10.9678C167.164 9.72754 166.319 9.10742 164.629 9.10742H163.216ZM180.139 14H178.777L177.663 11.0557H173.21L172.163 14H170.793L174.821 3.49707H176.096L180.139 14ZM177.26 9.94971L175.613 5.47461C175.559 5.32812 175.505 5.09375 175.451 4.77148H175.422C175.373 5.06934 175.317 5.30371 175.254 5.47461L173.62 9.94971H177.26ZM192.418 16.8198H191.283V14H183.117V3.49707H184.347V12.8867H189.782V3.49707H191.012V12.8867H192.418V16.8198ZM204.141 14H202.911V6.41211C202.911 5.72852 202.935 5.24756 202.984 4.96924H202.94C202.847 5.2085 202.735 5.42822 202.603 5.62842L197.198 14H195.674V3.49707H196.905V10.8945C196.905 11.6855 196.885 12.2007 196.846 12.4399H196.876C196.983 12.2251 197.12 11.9907 197.286 11.7368L202.559 3.49707H204.141V14ZM216.802 14H215.571V6.41211C215.571 5.72852 215.596 5.24756 215.644 4.96924H215.6C215.508 5.2085 215.395 5.42822 215.263 5.62842L209.858 14H208.335V3.49707H209.565V10.8945C209.565 11.6855 209.546 12.2007 209.507 12.4399H209.536C209.643 12.2251 209.78 11.9907 209.946 11.7368L215.22 3.49707H216.802V14ZM215.249 0.303711C215.176 0.992188 214.897 1.53662 214.414 1.93701C213.935 2.33252 213.335 2.53027 212.612 2.53027C211.87 2.53027 211.264 2.33252 210.796 1.93701C210.332 1.53662 210.078 0.992188 210.034 0.303711H211.221C211.289 1.22168 211.758 1.68066 212.627 1.68066C213.017 1.68066 213.34 1.56104 213.594 1.32178C213.847 1.07764 214.004 0.738281 214.062 0.303711H215.249Z" fill="white"/>
</svg>
