<svg width="25" height="25" viewBox="0 0 25 25" xmlns="http://www.w3.org/2000/svg">
<g clip-path="url(#clip0_224_1157)">
<path d="M13.5417 8.33333C14.3705 8.33333 15.1653 8.66257 15.7514 9.24862C16.3374 9.83468 16.6667 10.6295 16.6667 11.4583C16.6667 11.7346 16.7764 11.9996 16.9718 12.1949C17.1671 12.3903 17.4321 12.5 17.7083 12.5C17.9846 12.5 18.2496 12.3903 18.4449 12.1949C18.6403 11.9996 18.75 11.7346 18.75 11.4583C18.75 10.077 18.2013 8.75224 17.2245 7.77549C16.2478 6.79873 14.923 6.25 13.5417 6.25C13.2654 6.25 13.0004 6.35975 12.8051 6.5551C12.6097 6.75045 12.5 7.0154 12.5 7.29167C12.5 7.56793 12.6097 7.83289 12.8051 8.02824C13.0004 8.22359 13.2654 8.33333 13.5417 8.33333Z"/>
<path d="M13.5417 4.16634C15.4755 4.16634 17.3302 4.93457 18.6977 6.30202C20.0651 7.66947 20.8333 9.52414 20.8333 11.458C20.8333 11.7343 20.9431 11.9992 21.1384 12.1946C21.3338 12.3899 21.5987 12.4997 21.875 12.4997C22.1513 12.4997 22.4162 12.3899 22.6116 12.1946C22.8069 11.9992 22.9167 11.7343 22.9167 11.458C22.9167 8.9716 21.9289 6.58704 20.1708 4.82888C18.4126 3.07073 16.0281 2.08301 13.5417 2.08301C13.2654 2.08301 13.0004 2.19275 12.8051 2.3881C12.6097 2.58346 12.5 2.84841 12.5 3.12467C12.5 3.40094 12.6097 3.66589 12.8051 3.86124C13.0004 4.05659 13.2654 4.16634 13.5417 4.16634Z"/>
<path d="M22.6569 16.5726C22.5996 16.4054 22.5007 16.2555 22.3695 16.137C22.2383 16.0186 22.0791 15.9355 21.9069 15.8955L15.6569 14.4684C15.4873 14.43 15.3107 14.4346 15.1433 14.4819C14.9759 14.5292 14.823 14.6177 14.6986 14.7393C14.5527 14.8747 14.5423 14.8851 13.8652 16.1768C11.6186 15.1415 9.81835 13.3339 8.79232 11.083C10.1152 10.4163 10.1257 10.4163 10.2611 10.2601C10.3826 10.1357 10.4711 9.98279 10.5184 9.81539C10.5657 9.64799 10.5704 9.47141 10.5319 9.30176L9.10482 3.12467C9.06487 2.95248 8.98175 2.79329 8.8633 2.66208C8.74485 2.53087 8.59496 2.43197 8.42773 2.37467C8.18447 2.28779 7.93327 2.22499 7.67773 2.18717C7.41446 2.12613 7.14579 2.09124 6.87565 2.08301C5.60482 2.08301 4.38604 2.58784 3.48743 3.48645C2.58882 4.38507 2.08398 5.60385 2.08398 6.87467C2.0895 11.1275 3.78137 15.2046 6.78857 18.2118C9.79577 21.219 13.8728 22.9108 18.1257 22.9163C18.7549 22.9163 19.378 22.7924 19.9593 22.5516C20.5407 22.3108 21.0689 21.9578 21.5139 21.5129C21.9588 21.0679 22.3118 20.5397 22.5526 19.9584C22.7934 19.377 22.9173 18.7539 22.9173 18.1247C22.9176 17.8595 22.8967 17.5948 22.8548 17.333C22.811 17.0743 22.7448 16.8198 22.6569 16.5726Z"/>
</g>
<defs>
<clipPath id="clip0_224_1157">
<rect width="25" height="25"/>
</clipPath>
</defs>
</svg>
