<svg width="16" height="16" viewBox="0 0 16 16" xmlns="http://www.w3.org/2000/svg">
<g clip-path="url(#clip0_1_1453)">
<path d="M15.928 12.7533L15.8484 12.5133C15.6598 11.9527 15.0415 11.368 14.4736 11.214L12.3715 10.6397C11.8015 10.4846 10.9883 10.6932 10.5712 11.1102L9.81047 11.871C7.04566 11.1239 4.87761 8.95577 4.13152 6.19149L4.89233 5.43069C5.3094 5.01362 5.5179 4.20154 5.36282 3.63149L4.78962 1.5284C4.63454 0.959395 4.04877 0.341166 3.48922 0.154627L3.24926 0.0739491C2.68864 -0.112589 1.8891 0.0760616 1.47207 0.493099L0.334058 1.63215C0.130753 1.83438 0.000816572 2.41281 0.000816572 2.41492C-0.0389859 6.02799 1.37774 9.50902 3.93348 12.0648C6.48296 14.6143 9.95094 16.0289 13.5535 15.9985C13.5724 15.9985 14.1676 15.8707 14.3709 15.6684L15.5089 14.5304C15.9259 14.1134 16.1145 13.3139 15.928 12.7533Z"/>
</g>
<defs>
<clipPath id="clip0_1_1453">
<rect width="16" height="16" fill="white"/>
</clipPath>
</defs>
</svg>
