<svg width="12" height="14" viewBox="0 0 12 14" fill="none" xmlns="http://www.w3.org/2000/svg">
<path d="M8.53577 4.18033C8.71801 3.9894 8.71801 3.674 8.53577 3.47478C8.35354 3.28386 8.0525 3.28386 7.86235 3.47478L2.87893 8.69589C2.28473 9.31844 2.28473 10.3394 2.87893 10.962C3.47314 11.5845 4.44764 11.5845 5.04184 10.962L10.2629 5.49184C10.3105 5.46694 10.358 5.43374 10.4056 5.39223C11.1027 4.66179 12.9567 2.71944 11.174 0.851793C10.4927 0.137929 9.67665 -0.135992 8.81308 0.0632233C8.10795 0.220926 7.37907 0.694062 6.65017 1.45773L0.993331 7.38438C0.319907 8.08993 -0.0366167 9.06942 0.00297834 10.1402C0.0426014 11.1612 0.446661 12.1573 1.12009 12.8628C1.79351 13.5683 2.72841 13.9751 3.69497 14C3.71874 14 3.7425 14 3.77419 14C4.74077 14 5.62811 13.6182 6.2857 12.9292L11.8633 7.08556C12.0456 6.89464 12.0456 6.57923 11.8633 6.38002C11.6811 6.18909 11.38 6.18909 11.1899 6.38002L5.61228 12.2236C5.12106 12.7383 4.44764 13.0122 3.71082 13.0039C2.98986 12.9873 2.29264 12.6802 1.79351 12.1572C0.723939 11.0366 0.668489 9.13581 1.66675 8.08993L7.32359 2.16327C7.90989 1.54902 8.49615 1.15891 9.01114 1.04269C9.55781 0.918179 10.049 1.0842 10.5006 1.56563C10.9443 2.03047 11.0711 2.4621 10.9126 2.98504C10.8017 3.35857 10.5482 3.77361 10.1203 4.27165C10.0886 4.29655 10.049 4.32145 10.0253 4.34635L4.37633 10.2647C4.15451 10.4971 3.78213 10.4971 3.5603 10.2647C3.33847 10.0323 3.33847 9.64217 3.5603 9.40976L8.53577 4.18033Z" fill="white"/>
</svg>
