<svg width="48" height="48" viewBox="0 0 48 48" xmlns="http://www.w3.org/2000/svg">
<g clip-path="url(#clip0_1_5748)">
<path d="M24.0976 38.4458C16.0799 38.4458 12.4168 34.3839 12.4168 31.4047C12.4157 30.6939 12.709 30.0142 13.2277 29.5252C13.7464 29.0363 14.4446 28.7814 15.1582 28.8205C18.5909 28.8205 17.693 33.9414 24.0976 33.9414C27.3714 33.9414 29.2944 31.9816 29.2944 30.1403C29.2944 29.0339 28.6587 27.7695 26.4973 27.2637L19.3458 25.4699C13.6007 24.0158 12.5995 20.839 12.5995 17.8914C12.5995 11.7748 18.2254 9.56209 23.5811 9.56209C28.5157 9.56209 34.3799 12.2727 34.3799 15.9394C34.3799 17.5199 33.0529 18.3655 31.5114 18.3655C28.5792 18.3655 29.0719 14.272 23.1759 14.272C20.2437 14.272 18.7022 15.6391 18.7022 17.5515C18.7022 19.464 20.9827 20.112 22.9851 20.5466L28.2614 21.732C34.0462 23.028 35.5877 26.4024 35.5877 29.6345C35.5877 34.6052 31.718 38.4458 24.0897 38.4458H24.0976ZM46.2356 27.9276C46.4646 26.6228 46.5789 25.3008 46.5773 23.9763C46.6053 17.3233 43.6659 11.0002 38.5514 6.7117C33.4368 2.42314 26.6736 0.61047 20.0848 1.7623C18.0596 0.602705 15.7628 -0.00516098 13.4259 3.30082e-05C8.62932 0.0291736 4.20799 2.5858 1.8097 6.71709C-0.588598 10.8484 -0.604113 15.9347 1.76893 20.0804C0.444792 27.3162 2.76429 34.7385 7.97927 39.9532C13.1942 45.1679 20.6448 47.5151 27.9276 46.2377C29.9503 47.3963 32.2444 48.0042 34.5786 48C39.3727 47.9693 43.7914 45.4137 46.1892 41.2849C48.5869 37.1561 48.6046 32.0727 46.2356 27.9276Z"/>
</g>
<defs>
<clipPath id="clip0_1_5748">
<rect width="48" height="48" fill="white"/>
</clipPath>
</defs>
</svg>
