<svg width="48" height="34" viewBox="0 0 48 34" xmlns="http://www.w3.org/2000/svg">
<g clip-path="url(#clip0_1_5749)">
<path d="M47.5219 7.3363C47.5219 7.3363 47.0531 4.00333 45.6094 2.53985C43.7812 0.613719 41.7375 0.604276 40.8 0.490974C34.0875 -2.70133e-07 24.0094 0 24.0094 0H23.9906C23.9906 0 13.9125 -2.70133e-07 7.2 0.490974C6.2625 0.604276 4.21875 0.613719 2.39062 2.53985C0.946875 4.00333 0.4875 7.3363 0.4875 7.3363C0.4875 7.3363 0 11.2547 0 15.1636V18.827C0 22.7359 0.478125 26.6543 0.478125 26.6543C0.478125 26.6543 0.946875 29.9872 2.38125 31.4507C4.20937 33.3768 6.60938 33.3107 7.67813 33.5185C11.5219 33.8867 24 34 24 34C24 34 34.0875 33.9811 40.8 33.4996C41.7375 33.3863 43.7812 33.3768 45.6094 31.4507C47.0531 29.9872 47.5219 26.6543 47.5219 26.6543C47.5219 26.6543 48 22.7453 48 18.827V15.1636C48 11.2547 47.5219 7.3363 47.5219 7.3363ZM19.0406 23.2741V9.68731L32.0062 16.5043L19.0406 23.2741Z"/>
</g>
<defs>
<clipPath id="clip0_1_5749">
<rect width="48" height="34" fill="white"/>
</clipPath>
</defs>
</svg>
