<svg xmlns="http://www.w3.org/2000/svg"  viewBox="0 0 50 50" width="100px" height="100px"><path d="M 18 3 C 14.007813 3 10.386719 3.738281 7.679688 4.996094 C 4.96875 6.253906 3 8.121094 3 10.5 C 3 10.503906 3 10.507813 3 10.511719 L 3 38.488281 C 3 40.871094 4.96875 42.738281 7.679688 44 C 10.386719 45.261719 14.007813 46 18 46 C 21.992188 46 25.613281 45.261719 28.324219 44 C 29.746094 43.339844 30.953125 42.503906 31.792969 41.515625 C 32.265625 42.871094 32.769531 44.164063 33.292969 45.390625 L 34 47.050781 L 38.160156 41.082031 L 36.496094 37.757813 L 32.941406 39.042969 C 32.96875 38.859375 33 38.679688 33 38.488281 L 33 26.429688 C 33.160156 26.960938 33.304688 27.484375 33.484375 28.027344 L 33.84375 29.105469 L 37.546875 27.328125 L 37.855469 27.941406 L 35.082031 32.332031 L 35.289063 32.8125 C 36.746094 36.230469 38.347656 39.09375 39.902344 41.078125 C 40.679688 42.070313 41.441406 42.847656 42.234375 43.367188 C 43.027344 43.886719 43.960938 44.1875 44.859375 43.867188 C 45.925781 43.488281 46.464844 42.457031 46.734375 41.308594 C 47.007813 40.160156 47.058594 38.75 46.941406 37.109375 C 46.710938 33.820313 45.789063 29.605469 44.238281 25.140625 C 42.691406 20.675781 40.804688 16.804688 38.953125 14.09375 C 38.03125 12.734375 37.121094 11.667969 36.199219 10.941406 C 35.734375 10.582031 35.238281 10.28125 34.71875 10.125 C 34.203125 9.964844 33.671875 9.941406 33.140625 10.132813 C 33.078125 10.152344 33.027344 10.183594 32.96875 10.207031 C 32.816406 7.972656 30.917969 6.203125 28.324219 4.996094 C 25.613281 3.738281 21.992188 3 18 3 Z M 18 5 C 21.742188 5 25.121094 5.714844 27.480469 6.8125 C 29.835938 7.90625 31 9.285156 31 10.5 C 31 11.714844 29.835938 13.09375 27.480469 14.1875 C 25.121094 15.285156 21.742188 16 18 16 C 14.257813 16 10.878906 15.285156 8.523438 14.1875 C 6.164063 13.09375 5 11.714844 5 10.5 C 5 9.285156 6.164063 7.90625 8.523438 6.8125 C 10.878906 5.714844 14.257813 5 18 5 Z M 18 9 C 16.34375 9 15 9.671875 15 10.5 C 15 11.328125 16.34375 12 18 12 C 19.65625 12 21 11.328125 21 10.5 C 21 9.671875 19.65625 9 18 9 Z M 33.949219 12.003906 C 34.136719 12.015625 34.464844 12.128906 34.964844 12.515625 C 35.625 13.039063 36.453125 13.972656 37.304688 15.21875 C 39.007813 17.71875 40.847656 21.464844 42.351563 25.796875 C 43.855469 30.125 44.734375 34.214844 44.949219 37.25 C 45.054688 38.765625 44.988281 40.019531 44.792969 40.847656 C 44.59375 41.675781 44.3125 41.9375 44.1875 41.984375 C 44.085938 42.019531 43.835938 42.023438 43.332031 41.691406 C 42.828125 41.363281 42.167969 40.726563 41.476563 39.84375 C 40.160156 38.164063 38.699219 35.5625 37.351563 32.484375 L 40.144531 28.058594 L 38.453125 24.671875 L 35.078125 26.292969 C 33.925781 22.570313 33.191406 19.078125 33.039063 16.472656 C 32.953125 15.035156 33.03125 13.855469 33.230469 13.078125 C 33.425781 12.296875 33.691406 12.058594 33.8125 12.015625 C 33.839844 12.007813 33.886719 12 33.949219 12.003906 Z M 5 14.328125 C 5.746094 14.96875 6.65625 15.53125 7.679688 16.003906 C 10.386719 17.261719 14.007813 18 18 18 C 21.992188 18 25.613281 17.261719 28.324219 16.003906 C 29.34375 15.53125 30.253906 14.96875 31 14.328125 L 31 17.488281 C 31 18.707031 29.835938 20.089844 27.480469 21.1875 C 25.121094 22.285156 21.742188 23 18 23 C 14.257813 23 10.878906 22.285156 8.523438 21.1875 C 6.164063 20.089844 5 18.707031 5 17.488281 Z M 5 21.324219 C 5.746094 21.964844 6.65625 22.527344 7.679688 23 C 10.386719 24.261719 14.007813 25 18 25 C 21.992188 25 25.613281 24.261719 28.324219 23 C 29.34375 22.527344 30.253906 21.964844 31 21.324219 L 31 24.488281 C 31 25.707031 29.835938 27.089844 27.480469 28.1875 C 25.121094 29.285156 21.742188 30 18 30 C 14.257813 30 10.878906 29.285156 8.523438 28.1875 C 6.164063 27.089844 5 25.707031 5 24.488281 Z M 5 28.324219 C 5.746094 28.964844 6.65625 29.527344 7.679688 30 C 10.386719 31.261719 14.007813 32 18 32 C 21.992188 32 25.613281 31.261719 28.324219 30 C 29.34375 29.527344 30.253906 28.964844 31 28.324219 L 31 31.488281 C 31 32.707031 29.835938 34.089844 27.480469 35.1875 C 25.121094 36.285156 21.742188 37 18 37 C 14.257813 37 10.878906 36.285156 8.523438 35.1875 C 6.164063 34.089844 5 32.707031 5 31.488281 Z M 5 35.324219 C 5.746094 35.964844 6.65625 36.527344 7.679688 37 C 10.386719 38.261719 14.007813 39 18 39 C 21.992188 39 25.613281 38.261719 28.324219 37 C 29.34375 36.527344 30.253906 35.964844 31 35.324219 L 31 38.488281 C 31 39.707031 29.835938 41.089844 27.480469 42.1875 C 25.121094 43.285156 21.742188 44 18 44 C 14.257813 44 10.878906 43.285156 8.523438 42.1875 C 6.164063 41.089844 5 39.707031 5 38.488281 Z M 35.503906 40.242188 L 35.839844 40.917969 L 34.464844 42.890625 C 34.207031 42.226563 33.9375 41.589844 33.695313 40.894531 Z"/></svg>